<?xml version="1.0" encoding="UTF-8" standalone="no"?>
<svg
   width="100%"
   height="100%"
   viewBox="0 0 1058.4 465.84"
   version="1.1"
   id="svg2"
   sodipodi:docname="DVD_logo_white.svg"
   inkscape:version="1.4.1 (93de688d07, 2025-03-30)"
   xmlns:inkscape="http://www.inkscape.org/namespaces/inkscape"
   xmlns:sodipodi="http://sodipodi.sourceforge.net/DTD/sodipodi-0.dtd"
   xmlns="http://www.w3.org/2000/svg"
   xmlns:svg="http://www.w3.org/2000/svg">
  <defs
     id="defs2" />
  <sodipodi:namedview
     id="namedview2"
     pagecolor="#505050"
     bordercolor="#eeeeee"
     borderopacity="1"
     inkscape:showpageshadow="0"
     inkscape:pageopacity="0"
     inkscape:pagecheckerboard="0"
     inkscape:deskcolor="#505050"
     inkscape:zoom="1.6978458"
     inkscape:cx="529.49449"
     inkscape:cy="209.38297"
     inkscape:window-width="1920"
     inkscape:window-height="1002"
     inkscape:window-x="0"
     inkscape:window-y="0"
     inkscape:window-maximized="1"
     inkscape:current-layer="svg2" />
  <g
     id="g2">
    <path
       d="m91.053 0-13.719 57.707 102.28 0.039063h24c65.747 0 105.91 26.44 94.746 73.4-12.147 51.133-69.613 73.4-130.67 73.4h-22.947l29.787-125.45h-102.27l-43.521 183.2h145.05c109.07 0 212.76-57.573 231.01-131.15 3.3467-13.507 2.8806-47.253-5.3594-67.359-0.21299-0.787-0.42594-1.4-1.1855-3-0.293-0.653-0.56012-3.6412 1.1465-4.2812 0.947-0.36 2.7069 1.4944 2.9336 2.041 0.853 2.24 1.5059 3.9062 1.5059 3.9062l92.293 260.6 234.97-265.21 99.535-0.089844h24c65.76 0 106.25 26.44 95.092 73.4-12.147 51.133-69.947 73.4-131 73.4h-22.959l29.799-125.47h-102.27l-43.533 183.21h145.07c109.05 0 213.48-57.4 231-131.15 17.52-73.75-59.107-131.15-168.69-131.15h-216.4s-57.319 67.88-67.959 80.693c-57.12 68.787-67.241 87.226-68.961 91.986 0.24-4.8-1.8138-23.412-26.174-92.959-6.48-18.52-27.359-79.721-27.359-79.721h-389.25zm408.77 324.16c-276.04 0-499.83 31.72-499.83 70.84s223.79 70.84 499.83 70.84c276.04 0 499.83-31.72 499.83-70.84s-223.79-70.84-499.83-70.84zm-18.094 48.627c63.04 0 114.13 10.573 114.13 23.613s-51.095 23.613-114.13 23.613c-63.027 0-114.13-10.573-114.13-23.613s51.106-23.613 114.13-23.613z"
       id="path1" />
    <path
       d="m963.6 445.05-0.73242 5.1738h13.08l-5.1074 36.32h5.7207l5.1055-36.32h11.68l0.72071-5.1738h-30.467zm41.215 0-13.693 41.494h5.4785l10.215-31.76h0.1328l7.1718 31.76 16.668-31.453h0.1191v31.453h5.4805v-41.494h-5.4805l-14.906 28.107-6.4395-28.107h-4.746z"
       display="none"
       id="path2"
       style="fill:#ffffff;fill-opacity:1" />
  </g>
  <path
     style="opacity:0.99;fill:#ffffff;fill-opacity:1;stroke:#000000;stroke-width:0;-inkscape-stroke:none"
     d="M 449.39299,190.18785 C 415.79834,95.262302 402.24071,57.650407 401.40718,57.06445 c -1.67425,-1.176967 -2.6032,-1.011297 -3.33497,0.594757 -0.5307,1.164763 -0.26446,2.476224 1.52332,7.503471 4.81469,13.538933 6.45809,24.635842 6.48641,43.798922 0.0232,15.7153 -0.34899,18.68065 -3.62168,28.85206 -12.04322,37.42996 -47.89109,72.50511 -97.66226,95.55708 -33.8036,15.65645 -70.50996,25.01209 -109.2561,27.84698 -10.92653,0.79945 -166.092818,0.78932 -166.092818,-0.0108 0,-0.80011 42.949645,-181.550182 43.199025,-181.799563 0.107727,-0.107725 22.982285,-0.128127 50.832363,-0.04533 l 50.63648,0.150532 -13.99444,58.898161 c -7.69695,32.39399 -14.38627,60.58469 -14.86515,62.64601 l -0.8707,3.74784 22.19098,-0.30851 c 22.07642,-0.30691 27.02922,-0.67876 40.70719,-3.0562 26.55898,-4.61635 48.77611,-14.18169 65.20366,-28.07273 16.48672,-13.94106 26.62894,-33.67516 27.71144,-53.91916 C 302.08859,84.127958 273.02599,62.118645 219.10117,58.031257 214.34547,57.670786 184.3268,57.427995 144.40805,57.42714 81.126279,57.425784 77.681321,57.372274 77.95795,56.394992 78.118414,55.828097 81.067055,43.437396 84.510484,28.8601 87.953912,14.282805 90.906447,1.891707 91.07168,1.3243276 91.357213,0.34382033 100.99971,0.30006476 285.76428,0.44085511 L 480.15647,0.58898164 483.9857,11.779633 c 2.10608,6.154858 10.3917,30.273656 18.4125,53.597329 21.76213,63.282098 28.54218,85.879088 30.77543,102.570208 l 0.65425,4.88974 2.02061,-3.66654 c 4.53697,-8.23263 14.91327,-22.84573 29.78762,-41.95034 17.20713,-22.10083 31.8591,-39.834315 83.57968,-101.157593 l 21.73289,-25.76794618 113.18242,0.005825 c 125.53184,0.00646 127.20555,0.049644 150.28827,3.87764618 43.18219,7.161269 80.35463,25.357125 101.12153,49.498828 11.7117,13.614986 18.7872,28.065062 21.4004,43.70584 1.3433,8.03945 0.9438,23.16232 -0.822,31.12448 -3.6259,16.34932 -11.6142,32.57626 -23.6272,47.99491 -5.2375,6.72239 -18.9907,20.38374 -26.6975,26.51925 -35.15952,27.99132 -84.22075,48.25379 -134.39627,55.50616 -20.55234,2.97063 -16.9453,2.86584 -106.82849,3.10374 l -84.44712,0.22352 0.34443,-1.3171 c 0.18942,-0.7244 9.96369,-41.81715 21.72058,-91.31722 l 21.37621,-90.000118 50.86351,-0.0011 50.86351,-0.0011 -0.41063,1.6197 c -1.66164,6.55404 -29.16614,122.771668 -29.16614,123.238668 0,0.80715 32.38728,0.78484 42.22733,-0.0291 51.89023,-4.29215 89.66639,-24.14413 105.6768,-55.5348 9.42989,-18.48854 10.66198,-39.10324 3.22031,-53.880353 C 938.12483,77.32884 917.09029,64.960409 888.18431,60.143116 874.47605,57.858579 873.67286,57.834908 801.82635,57.598097 L 731.07646,57.364879 614.99041,188.38939 C 551.1431,260.45287 498.29973,320.10705 497.56071,320.95422 l -1.34368,1.54032 z"
     id="path3" />
  <path
     style="opacity:0.99;fill:#ffffff;fill-opacity:1;stroke:#000000;stroke-width:0;-inkscape-stroke:none"
     d="M 448.21503,465.19012 C 270.72278,462.69412 111.24583,446.03019 40.639733,422.6021 23.33327,416.85958 12.965607,411.71947 6.3668349,405.61017 2.0171311,401.5831 0.58898164,398.90033 0.58898164,394.75647 c 0,-9.44432 13.41098536,-18.53944 40.55666636,-27.50491 103.977512,-34.34092 380.267502,-51.2881 628.820962,-38.57088 147.75712,7.55999 263.37033,24.88927 308.09258,46.18007 11.89684,5.66371 18.33506,10.9063 20.56536,16.74628 0.93883,2.45822 0.9899,3.20861 0.375,5.50767 -2.34715,8.77559 -14.48423,16.79414 -37.19254,24.57184 -84.64214,28.99028 -292.66126,46.61044 -513.59198,43.50358 z m 73.6227,-46.39267 c 46.10515,-3.87499 74.23118,-12.40428 74.2078,-22.50368 -0.0304,-13.12397 -51.22355,-23.73732 -114.55304,-23.7491 -49.30572,-0.009 -93.45509,6.69187 -108.60593,16.48433 -5.01881,3.24382 -6.49697,6.69184 -4.51327,10.5279 4.83388,9.34769 39.49913,17.46116 85.77429,20.07565 13.4316,0.75887 54.79685,0.24854 67.69015,-0.8351 z"
     id="path4" />
</svg>
